<svg width="81" height="23" viewBox="0 0 81 23" fill="none" xmlns="http://www.w3.org/2000/svg">
<path d="M14 22H10L13 8L8 11L9 8L18 2L14 22Z" fill="white" stroke="white"/>
<path d="M26.272 22.0005H29.296L32.008 8.03246H37.24L37.792 5.27246H24.304L23.752 8.03246H28.984L26.272 22.0005Z" fill="white"/>
<path d="M42.9251 9.92846C41.6771 9.92846 40.2371 10.6245 39.4691 12.0405L39.8531 10.1685H36.9491L34.6451 22.0005H37.5251L38.6531 16.1685C39.0851 13.9365 40.2611 12.7365 42.0851 12.7365C42.5891 12.7365 43.0211 12.8085 43.3811 13.0725L45.1571 10.6485C44.4611 10.1685 43.7891 9.92846 42.9251 9.92846Z" fill="white"/>
<path d="M54.8006 17.1525C54.9926 16.5045 55.2086 15.3285 55.2086 14.5125C55.2086 11.8965 53.7926 9.92846 50.6726 9.92846C46.6646 9.92846 43.8806 13.3845 43.8806 17.4885C43.8806 20.1045 45.2726 22.2405 48.7526 22.2405C50.6726 22.2405 52.3286 21.6165 53.9126 20.1765L52.1846 18.2565C51.2006 19.1925 50.1446 19.6245 49.0166 19.6245C47.3846 19.6245 46.6406 18.8805 46.6406 17.5845C46.6406 17.4405 46.6406 17.2965 46.6646 17.1525H54.8006ZM50.4566 12.3285C51.8006 12.3285 52.5926 13.0965 52.5926 14.1765C52.5926 14.4405 52.5446 14.7525 52.4246 15.0645H47.0966C47.4806 13.8165 48.5126 12.3285 50.4566 12.3285Z" fill="white"/>
<path d="M59.2785 22.0005H61.6545L68.7825 10.1685H65.6145L61.1265 18.2565L59.8545 10.1685H56.7585L59.2785 22.0005Z" fill="white"/>
<path d="M77.484 10.1685L77.22 11.4645C76.644 10.5765 75.42 9.92846 74.004 9.92846C70.188 9.92846 67.812 13.7445 67.812 17.7045C67.812 20.3925 69.18 22.2405 71.892 22.2405C73.092 22.2405 74.436 21.8565 75.468 20.6325L75.204 22.0005H78.084L80.388 10.1685H77.484ZM72.828 19.5765C71.34 19.5765 70.668 18.8085 70.668 17.4405C70.668 14.9685 72.036 12.5445 74.484 12.5445C76.092 12.5445 76.764 13.5045 76.764 14.8725C76.764 17.2965 75.3 19.5765 72.828 19.5765Z" fill="white"/>
<path d="M8 22H1L2 16.5L10 12L8 22Z" fill="#528FF0" stroke="#528FF0"/>
</svg>
