<svg width="24" height="17" viewBox="0 0 24 17" fill="none" xmlns="http://www.w3.org/2000/svg">
<g clip-path="url(#clip0_101_251)">
<path d="M1.31739 0H22.6783C23.4043 0 23.9956 0.591304 23.9956 1.31739V15.3739C23.9956 16.1 23.4043 16.6913 22.6783 16.6913H1.31739C0.591304 16.6957 0 16.1043 0 15.3783V1.31739C0 0.591304 0.591304 0 1.31739 0Z" fill="#B22234"/>
<path d="M0.00869565 1.18652H23.9957C24 1.23 24.0043 1.27348 24.0043 1.32131V2.59957H0V1.31696C0 1.27348 0.00434783 1.23 0.00869565 1.18652ZM24 3.76913V5.17783H0V3.76913H24ZM24 6.35174V7.76044H0V6.35174H24V6.35174ZM24 8.93435V10.343H0V8.93435H24V8.93435ZM24 11.517V12.9257H0V11.517H24V11.517ZM24 14.0996V15.3735C24 15.417 23.9957 15.4648 23.9913 15.5083H0.00869565C0.00434783 15.4691 0 15.4213 0 15.3778V14.1039H24V14.0996Z" fill="white"/>
<path d="M9.04348 0V8.9913H0V1.31739C0 0.591304 0.591304 0 1.31739 0H9.04348Z" fill="#3C3B6E"/>
<path d="M0.534761 1.24316L0.834761 2.17795L0.043457 1.59969H1.02607L0.230414 2.17795L0.534761 1.24316Z" fill="white"/>
<path d="M0.534761 3.05176L0.834761 3.98654L0.043457 3.40828H1.02607L0.230414 3.98654L0.534761 3.05176Z" fill="white"/>
<path d="M0.534761 4.86133L0.834761 5.79611L0.043457 5.21785H1.02607L0.230414 5.79611L0.534761 4.86133Z" fill="white"/>
<path d="M0.534761 6.66992L0.834761 7.6047L0.043457 7.02644H1.02607L0.230414 7.6047L0.534761 6.66992Z" fill="white"/>
<path d="M1.59555 0.338867L1.8999 1.27365L1.10425 0.695389H2.0912L1.2912 1.27365L1.59555 0.338867Z" fill="white"/>
<path d="M1.59555 2.14746L1.8999 3.08224L1.10425 2.50398H2.0912L1.2912 3.08224L1.59555 2.14746Z" fill="white"/>
<path d="M1.59555 3.95605L1.8999 4.89084L1.10425 4.31258H2.0912L1.2912 4.89084L1.59555 3.95605Z" fill="white"/>
<path d="M1.59555 5.76562L1.8999 6.70041L1.10425 6.12215H2.0912L1.2912 6.70041L1.59555 5.76562Z" fill="white"/>
<path d="M1.59555 7.57422L1.8999 8.509L1.10425 7.93074H2.0912L1.2912 8.509L1.59555 7.57422Z" fill="white"/>
<path d="M2.66074 1.24316L2.96509 2.17795L2.16943 1.59969H3.15204L2.35639 2.17795L2.66074 1.24316Z" fill="white"/>
<path d="M2.66074 3.05176L2.96509 3.98654L2.16943 3.40828H3.15204L2.35639 3.98654L2.66074 3.05176Z" fill="white"/>
<path d="M2.66074 4.86133L2.96509 5.79611L2.16943 5.21785H3.15204L2.35639 5.79611L2.66074 4.86133Z" fill="white"/>
<path d="M2.66074 6.66992L2.96509 7.6047L2.16943 7.02644H3.15204L2.35639 7.6047L2.66074 6.66992Z" fill="white"/>
<path d="M3.72617 0.338867L4.02617 1.27365L3.23486 0.695389H4.21747L3.42182 1.27365L3.72617 0.338867Z" fill="white"/>
<path d="M3.72617 2.14746L4.02617 3.08224L3.23486 2.50398H4.21747L3.42182 3.08224L3.72617 2.14746Z" fill="white"/>
<path d="M3.72617 3.95605L4.02617 4.89084L3.23486 4.31258H4.21747L3.42182 4.89084L3.72617 3.95605Z" fill="white"/>
<path d="M3.72617 5.76562L4.02617 6.70041L3.23486 6.12215H4.21747L3.42182 6.70041L3.72617 5.76562Z" fill="white"/>
<path d="M3.72617 7.57422L4.02617 8.509L3.23486 7.93074H4.21747L3.42182 8.509L3.72617 7.57422Z" fill="white"/>
<path d="M4.78696 1.24316L5.09131 2.17795L4.29565 1.59969H5.27826L4.48261 2.17795L4.78696 1.24316Z" fill="white"/>
<path d="M4.78696 3.05176L5.09131 3.98654L4.29565 3.40828H5.27826L4.48261 3.98654L4.78696 3.05176Z" fill="white"/>
<path d="M4.78696 4.86133L5.09131 5.79611L4.29565 5.21785H5.27826L4.48261 5.79611L4.78696 4.86133Z" fill="white"/>
<path d="M4.78696 6.66992L5.09131 7.6047L4.29565 7.02644H5.27826L4.48261 7.6047L4.78696 6.66992Z" fill="white"/>
<path d="M5.85214 0.338867L6.15649 1.27365L5.36084 0.695389H6.34345L5.5478 1.27365L5.85214 0.338867Z" fill="white"/>
<path d="M5.85214 2.14746L6.15649 3.08224L5.36084 2.50398H6.34345L5.5478 3.08224L5.85214 2.14746Z" fill="white"/>
<path d="M5.85214 3.95605L6.15649 4.89084L5.36084 4.31258H6.34345L5.5478 4.89084L5.85214 3.95605Z" fill="white"/>
<path d="M5.85214 5.76562L6.15649 6.70041L5.36084 6.12215H6.34345L5.5478 6.70041L5.85214 5.76562Z" fill="white"/>
<path d="M5.85214 7.57422L6.15649 8.509L5.36084 7.93074H6.34345L5.5478 8.509L5.85214 7.57422Z" fill="white"/>
<path d="M6.91318 1.24316L7.21753 2.17795L6.42188 1.59969H7.40448L6.61318 2.17795L6.91318 1.24316Z" fill="white"/>
<path d="M6.91318 3.05176L7.21753 3.98654L6.42188 3.40828H7.40448L6.61318 3.98654L6.91318 3.05176Z" fill="white"/>
<path d="M6.91318 4.86133L7.21753 5.79611L6.42188 5.21785H7.40448L6.61318 5.79611L6.91318 4.86133Z" fill="white"/>
<path d="M6.91318 6.66992L7.21753 7.6047L6.42188 7.02644H7.40448L6.61318 7.6047L6.91318 6.66992Z" fill="white"/>
<path d="M7.97837 0.338867L8.28271 1.27365L7.48706 0.695389H8.46967L7.67402 1.27365L7.97837 0.338867Z" fill="white"/>
<path d="M7.97837 2.14746L8.28271 3.08224L7.48706 2.50398H8.46967L7.67402 3.08224L7.97837 2.14746Z" fill="white"/>
<path d="M7.97837 3.95605L8.28271 4.89084L7.48706 4.31258H8.46967L7.67402 4.89084L7.97837 3.95605Z" fill="white"/>
<path d="M7.97837 5.76562L8.28271 6.70041L7.48706 6.12215H8.46967L7.67402 6.70041L7.97837 5.76562Z" fill="white"/>
<path d="M7.97837 7.57422L8.28271 8.509L7.48706 7.93074H8.46967L7.67402 8.509L7.97837 7.57422Z" fill="white"/>
</g>
<defs>
<clipPath id="clip0_101_251">
<rect width="24" height="16.6957" fill="white"/>
</clipPath>
</defs>
</svg>
